<svg id="Layer_1" data-name="Layer 1" xmlns="http://www.w3.org/2000/svg" viewBox="0 0 1921 435.48"><defs><style>.cls-1,.cls-2{fill:#e8e8e8;}.cls-1{opacity:0.19;}.cls-2{opacity:0.33;}</style></defs><title>bg-wave</title><path class="cls-1" d="M1920.5,868.5v211H-.5L1,1017S123.75,767.23,240.5,757.5C372.5,746.5,471,916,605,915c130-1,333-122,489-228s285.1,11.36,375,81c142,110,270.5,190,451.5,80" transform="translate(0.5 -644.52)"/><path class="cls-2" d="M0,693S112,804,178,853s174,117,280,62S804,727,934,729s167.51.51,264,97c309,309,554-22,611-72s81-55,111-53v379H0Z" transform="translate(0.5 -644.52)"/></svg>