<svg id="Layer_1" data-name="Layer 1" xmlns="http://www.w3.org/2000/svg" viewBox="0 0 1921 267"><defs><style>.cls-1,.cls-2{fill:#e8e8e8;}.cls-1{opacity:0.19;}.cls-2{opacity:0.33;}</style></defs><title>bg-wave</title><path class="cls-1" d="M1920.5,950.23V1079.5H-.5L1,1041.21s122.75-153,239.5-159c132-6.74,230.49,97.13,364.5,96.5C735,978.1,938,904,1094,839s285.1,7,375,49.63c142,67.39,270.5,116.41,451.5,49" transform="translate(0.5 -813)"/><path class="cls-2" d="M0,813s112,76.58,178,110.39,174,80.72,280,42.78S804,836.46,934,837.84s167.51.35,264,66.92c309,213.19,554-15.18,611-49.67s81-37.95,111-36.57V1080H0Z" transform="translate(0.5 -813)"/></svg>